<?xml version="1.0" standalone="no"?>
<!DOCTYPE svg PUBLIC "-//W3C//DTD SVG 20010904//EN"
 "http://www.w3.org/TR/2001/REC-SVG-20010904/DTD/svg10.dtd">
<svg version="1.0" xmlns="http://www.w3.org/2000/svg"
 width="152.000000pt" height="24.000000pt" viewBox="0 0 152.000000 24.000000"
 preserveAspectRatio="xMidYMid meet">

<g transform="translate(0.000000,24.000000) scale(0.100000,-0.100000)"
fill="#000000" stroke="none">
<path d="M66 219 c-45 -35 -29 -96 29 -112 11 -3 39 -11 63 -17 65 -17 48 -34
-39 -40 -66 -4 -74 -7 -74 -25 0 -18 7 -20 88 -20 82 0 90 2 109 25 18 22 18
25 3 36 -15 11 -15 13 0 16 14 3 14 5 0 25 -10 14 -35 26 -69 34 -64 14 -81
23 -72 38 4 6 36 11 77 11 67 0 69 1 69 25 0 25 -1 25 -79 25 -64 0 -83 -4
-105 -21z"/>
<path d="M352 228 c-11 -15 -62 -137 -62 -150 0 -5 10 -8 23 -6 15 2 28 17 42
46 22 48 32 52 41 17 7 -28 12 -30 37 -11 16 13 16 16 -4 65 -17 40 -27 51
-44 51 -12 0 -27 -6 -33 -12z"/>
<path d="M516 224 c-3 -9 -6 -63 -6 -120 l0 -104 30 0 c28 0 30 2 30 40 l0 40
53 0 c28 0 63 6 76 13 30 15 43 58 30 97 -13 36 -51 50 -139 50 -53 0 -69 -4
-74 -16z m149 -64 c0 -23 -4 -25 -47 -28 -45 -3 -48 -1 -48 21 0 33 8 38 55
35 35 -3 40 -6 40 -28z"/>
<path d="M754 227 c-2 -7 -3 -60 -2 -118 l3 -104 28 -3 27 -3 0 120 0 121 -25
0 c-14 0 -28 -6 -31 -13z"/>
<path d="M840 120 l0 -120 85 0 c84 0 85 0 85 25 0 24 -3 25 -60 25 -57 0 -60
1 -60 25 0 23 3 25 50 25 43 0 50 3 50 20 0 17 -7 20 -50 20 -47 0 -50 2 -50
25 0 24 3 25 60 25 57 0 60 1 60 25 0 25 -1 25 -85 25 l-85 0 0 -120z"/>
<path d="M1040 120 c0 -120 0 -121 23 -118 20 3 22 10 27 72 l5 69 48 -71 c37
-57 52 -72 72 -72 l25 0 0 121 c0 119 0 120 -22 117 -21 -3 -24 -10 -28 -68
l-5 -65 -45 65 c-35 49 -52 66 -73 68 l-27 3 0 -121z"/>
<path d="M1300 227 c-35 -18 -48 -59 -27 -90 12 -18 32 -29 71 -38 64 -14 81
-23 72 -38 -4 -6 -36 -11 -77 -11 -67 0 -69 -1 -69 -25 0 -24 2 -25 76 -25
101 0 134 17 134 72 0 34 -37 63 -92 72 -45 7 -71 23 -62 37 3 5 36 9 75 9 67
0 69 1 69 25 0 24 -2 25 -72 25 -40 0 -84 -6 -98 -13z"/>
<path d="M441 71 c-23 -15 0 -65 32 -69 31 -4 32 -3 13 43 -16 37 -22 40 -45
26z"/>
<path d="M270 41 c0 -5 -3 -17 -6 -26 -6 -13 -1 -16 21 -13 18 2 31 11 36 26
7 20 5 22 -21 22 -17 0 -30 -4 -30 -9z"/>
</g>
</svg>
